Coordinates
version=1
nRows=13
nColumns=36
inDegrees=yes

Units are S.I. units (second, meters, Newtons, ...)
If the header above contains a line with 'inDegrees', this indicates whether rotational values are in degrees (yes) or radians (no).

endheader
time	pelvis_tilt	pelvis_list	pelvis_rotation	pelvis_tx	pelvis_ty	pelvis_tz	hip_flexion_r	hip_adduction_r	hip_rotation_r	knee_angle_r	knee_angle_r_beta	ankle_angle_r	subtalar_angle_r	mtp_angle_r	hip_flexion_l	hip_adduction_l	hip_rotation_l	knee_angle_l	knee_angle_l_beta	ankle_angle_l	subtalar_angle_l	mtp_angle_l	lumbar_extension	lumbar_bending	lumbar_rotation	arm_flex_r	arm_add_r	arm_rot_r	elbow_flex_r	pro_sup_r	arm_flex_l	arm_add_l	arm_rot_l	elbow_flex_l	pro_sup_l
      0.69000000	      0.53874336	      5.15144196	     -3.07035817	      0.71314831	      0.91252545	     -0.26758453	    -16.84742851	     -3.09634020	     -0.50126594	     31.14067154	      0.54350725	    -10.41003273	    -13.32549197	     -7.17970761	     21.40156659	      9.25568624	      2.68795940	     18.24470328	      0.31843014	     -2.32438746	     -9.29311117	     -7.17970761	     -3.54494793	     -5.64358301	      6.39455373	      1.67843290	     -6.66224406	     -5.71247549	     50.70847455	    100.56760658	    -16.52823848	     -2.04917594	    -28.93376372	     26.31509339	     96.64013974
      0.70000000	      0.34602028	      5.34214194	     -2.92315454	      0.72638247	      0.91442747	     -0.26828371	    -14.86863975	     -3.26175224	      0.06297751	     34.86157844	      0.60844933	    -14.95429560	    -15.95068966	     -7.19313214	     20.64844646	      9.67033012	      3.15646326	     18.21416604	      0.31789717	     -2.04437279	     -9.96587445	     -7.19313214	     -3.15540272	     -5.86838289	      6.09614441	      1.02275558	     -6.23968738	     -5.86681945	     49.17776852	    100.65714960	    -16.18321247	     -1.97429225	    -28.95832525	     26.97170867	     96.76682663
      0.71000000	      0.19245672	      5.73647886	     -2.91282357	      0.73944592	      0.91626749	     -0.26895918	    -12.70809183	     -3.83348131	      0.37986142	     38.82253800	      0.67758111	    -17.70763930	    -16.34365554	     -7.19986724	     19.68830958	     10.24710356	      3.38910003	     17.78205544	      0.31035542	     -1.41216047	    -10.13247630	     -7.19986724	     -2.80883567	     -6.30870144	      6.01183388	      0.26464327	     -5.96059763	     -5.87604140	     47.76776527	    100.66168382	    -15.70833494	     -1.96622876	    -28.85612848	     27.61827401	     96.86656248
      0.72000000	      0.28978319	      5.93934308	     -3.06888636	      0.75215507	      0.91836796	     -0.26938341	    -10.73794610	     -4.20269640	      0.96497368	     42.63931260	      0.74419640	    -19.63078107	    -16.23346939	     -7.20228228	     18.38803533	     10.57857097	      3.56588407	     17.25456256	      0.30114893	     -0.77803256	    -10.20250038	     -7.20228228	     -2.83434517	     -6.48680840	      5.88970987	     -0.37893415	     -5.71151862	     -5.85906389	     46.65691443	    100.62370585	    -15.17163297	     -1.87910995	    -28.70220415	     28.15540989	     96.93572992
      0.73000000	     -0.19460938	      6.40006116	     -3.30570514	      0.76476909	      0.91960752	     -0.26951048	     -7.93047843	     -4.86505816	      1.43256268	     46.56579462	      0.81272643	    -21.28695361	    -16.87689115	     -7.20673531	     17.65439794	     11.07499108	      3.53098877	     16.46736353	      0.28740971	     -0.17522765	    -10.20703818	     -7.20673531	     -2.01781053	     -7.03185474	      6.02116767	     -1.02067419	     -5.40316903	     -5.73188810	     44.74255910	    100.56813064	    -14.80563912	     -1.92207235	    -28.47537094	     29.12142410	     97.03706392
      0.74000000	     -0.42855564	      6.61200085	     -3.56796739	      0.77691589	      0.92109282	     -0.26948247	     -5.41224012	     -5.17230530	      2.06515743	     50.16539649	      0.87555134	    -21.82899585	    -17.41613089	     -7.21092471	     16.68914391	     11.30381089	      3.49303715	     15.75496641	      0.27497604	      0.35925259	    -10.11207421	     -7.21092471	     -1.63943766	     -7.27209837	      5.92822173	     -1.45829810	     -5.16097406	     -5.47028122	     43.02930884	    100.52340315	    -14.37363376	     -1.91126127	    -28.22832509	     30.02184602	     97.11137589
      0.75000000	     -0.65061820	      6.76234800	     -3.85795051	      0.78879100	      0.92250382	     -0.26932121	     -2.88881972	     -5.38622090	      2.67613918	     53.51254461	      0.93397009	    -21.29018001	    -17.85556187	     -7.21522555	     15.72370934	     11.44648700	      3.43280114	     15.04358110	      0.26256002	      0.88926829	     -9.88432064	     -7.21522555	     -1.30507979	     -7.43846592	      5.79216850	     -1.78173460	     -4.95974943	     -5.09139126	     41.24689093	    100.47403708	    -13.93273787	     -1.91260484	    -27.91100252	     30.94906928	     97.16937102
      0.76000000	     -0.93584610	      6.86537034	     -4.12337921	      0.80037418	      0.92376561	     -0.26914933	     -0.28088633	     -5.52300519	      3.21689974	     56.58289958	      0.98755790	    -19.58306740	    -17.94068704	     -7.22073688	     14.86461637	     11.52090906	      3.30322515	     14.36759175	      0.25076178	      1.42724135	     -9.50796711	     -7.22073688	     -0.94004896	     -7.56128731	      5.52702365	     -1.96390620	     -4.81255849	     -4.50201379	     39.21784955	    100.42152812	    -13.51552321	     -1.93960681	    -27.44362901	     31.94527602	     97.20834709
      0.77000000	     -1.11434520	      6.85691536	     -4.35557144	      0.81172343	      0.92509987	     -0.26898414	      2.16010001	     -5.52577974	      3.76199041	     59.31280737	      1.03520378	    -16.09285786	    -16.21483793	     -7.23965236	     13.93618710	     11.48573986	      3.11080602	     13.77403357	      0.24040224	      2.12832433	     -8.85273302	     -7.23965236	     -0.73018040	     -7.55497108	      4.82867193	     -1.74888100	     -4.89414062	     -2.67107536	     36.84847939	    100.40058960	    -13.23310609	     -1.98757572	    -26.87642234	     32.92899940	     96.98725402
      0.78000000	     -1.33938947	      6.78502537	     -4.56318305	      0.82290730	      0.92636240	     -0.26879936	      4.60830600	     -5.39003571	      4.23480534	     61.59105314	      1.07496667	    -13.38108620	    -15.70328095	     -7.25247614	     13.04956279	     11.39908400	      3.04198436	     13.13061438	      0.22917245	      2.65873502	     -8.46348894	     -7.25247614	     -0.53131266	     -7.45125227	      4.41042690	     -1.88016880	     -4.77132426	     -2.17764159	     35.02948333	    100.24542903	    -12.70249589	     -2.11518226	    -26.09316718	     33.72962149	     96.93892578
      0.79000000	     -1.45469132	      6.58736728	     -4.75232238	      0.83388042	      0.92777808	     -0.26855720	      6.84267236	     -5.01382635	      4.71124499	     63.33948501	      1.10548256	    -11.63994616	    -16.37143136	     -7.25494232	     11.99598852	     11.20964212	      3.18231230	     12.38617891	      0.21617960	      3.09218304	     -8.22921060	     -7.25494232	     -0.56289510	     -7.20973592	      4.10783310	     -2.27829851	     -4.67130968	     -2.17105035	     33.97220458	    100.16537651	    -11.90186238	     -2.23829255	    -25.66447179	     34.36030849	     97.01489072
      0.80000000	     -1.75846572	      6.42534880	     -4.77173169	      0.84478584	      0.92886662	     -0.26869274	      9.24237647	     -4.77404677	      4.96862093	     64.82023312	      1.13132649	     -8.22381415	    -14.65463358	     -7.26600290	     11.28423787	     11.06687270	      3.07572505	     11.87862805	      0.20732117	      3.60015927	     -7.73362068	     -7.26600290	     -0.34982444	     -6.96413451	      3.41710984	     -2.30033253	     -4.59853233	     -1.71099688	     31.98076614	    100.02870178	    -11.40290477	     -2.56694717	    -24.11273636	     35.11694470	     97.18828579
      0.81000000	     -1.87945544	      6.10117054	     -4.83770023	      0.85555760	      0.93019779	     -0.26869311	     11.32736633	     -4.22368240	      5.29252967	     65.72509958	      1.14711939	     -6.77158545	    -15.22110963	     -7.26804730	     10.28174199	     10.77816302	      3.23941783	     11.20722577	      0.19560299	      3.93293759	     -7.52991009	     -7.26804730	     -0.45238590	     -6.54403088	      2.95785723	     -2.77309038	     -4.59013342	     -1.76115741	     31.19652796	     99.96402411	    -10.52830368	     -2.68311141	    -23.70637620	     35.76355033	     97.29210035
